<svg xmlns="http://www.w3.org/2000/svg" viewBox="0 0 150 93">
<!-- SVG created with Arrow, by QuiverAI (https://quiver.ai) -->
  <style type="text/css">.cls-0 {fill:#808080;}
.cls-1 {fill:url(#SVGID_1_);}
.cls-2 {fill:url(#SVGID_2_);}
.cls-3 {fill:url(#SVGID_3_);}</style>
  <path class="cls-0" d="m70.8 70.4c1.3 0.8 3.2 1.6 5.4 1.6 2.8 0 4.3-1.3 4.3-3.3 0-1.8-1.1-2.8-3.9-3.9-3.4-1.2-5.8-3-5.8-6.2 0-3.5 2.8-6.1 7.2-6.1 2.4 0 4.1 0.6 5.2 1.2l-0.8 2.8c-0.8-0.4-2.3-1.1-4.3-1.1-2.7 0-3.7 1.5-3.7 2.8 0 1.8 1.2 2.6 4.1 3.7 3.6 1.4 5.5 3.2 5.5 6.4 0 3.4-2.5 7.2-8 7.2-2.3 0-4.6-0.7-5.8-1.5l0.6-3.6z"/>
  <path class="cls-0" d="m90.8 68.9-2.1 6.4h-3.6l8.2-22.7h3.7l7.7 19.8h1.2v3h-4.1l-2.1-6.4h-8.9v-0.1zm7.7-3-1.9-5.6c-0.4-1.2-0.8-2.5-1.1-3h-0.5c-0.3 1.1-0.6 2.1-1 3.1l-2 5.5h6.5z"/>
  <path class="cls-0" d="m105.7 72.5h0.1v-19.6l14.1-0.1 0.7 2.8h-11.4v6.6h8.2v3h-8.2v10.2h-3.6l0.1-2.9z"/>
  <path class="cls-0" d="m132.5 64.5h-8.5v7.5h11.6v3.3h-15l-0.3-18.6h0.2l1.3-4.1h11.6l0.4 2.9h-9.8v6.1h8.5v2.9z"/>
  <path class="cls-0" d="m136.1 52.7h5.9c2.8 0 7.1 1.1 7 5.9 0 3.5-1.9 4.6-3.3 5v0.4c0.9 0.4 3.7 8.1 3.9 11.4h-2.5l-2.5-7.1c-0.7-2.3-2.3-3.3-4.2-3.3h-1.2l0.2 9.6-0.6 0.8h-3.2l0.5-22.7zm3.2 9.4 2.4-0.1c2.2 0 3.8-1 3.8-3.2 0-2.1-1.4-3.3-3.7-3.3h-2.6l0.1 6.6z"/>
  <linearGradient id="SVGID_1_" x1="24.36" x2="24.36" y1="90.53" y2="38.01" gradientUnits="userSpaceOnUse">
    <stop stop-color="#320E0C" offset="0"/>
    <stop stop-color="#81410B" offset=".5"/>
    <stop stop-color="#D1731C" offset=".9"/>
  </linearGradient>
  <path class="cls-1" d="m30.4 38c-0.8 2.8-0.8 5.7-1.7 8.5-1.3 9.1 9.9 14.8 9.9 23.4 0.8 7.3-4.6 16.6-13.2 16.6-7.5 0-12.6-6.8-12.6-14.9 0-10.4 10.3-14.7 12.9-23.7 2.8-8.8 4.8-19 2.6-27.6l-0.2-2.7c1.2 6.8-2.5 12.2-5.7 16.3-3.9 4-9 5.3-13.4 9.1-5.2 4.3-8.8 11.3-8.8 20 0 14.9 10.5 27.5 25.2 27.5 13.9 0 27.1-10.2 27.1-27.1 0-11.1-8.2-24.8-22.1-25.4z"/>
  <linearGradient id="SVGID_2_" x1="12.36" x2="28.07" y1="16.14" y2="16.14" gradientUnits="userSpaceOnUse">
    <stop stop-color="#98C23C" offset=".2"/>
    <stop stop-color="#98C23C" offset=".5"/>
    <stop stop-color="#36642A" offset=".9"/>
  </linearGradient>
  <path class="cls-2" d="m25.3 10.9-3.6-3.3h-0.6l-3.1-3.2-3.1-3.7-0.3-0.2c1.7 6.8-2.2 11.2-2.2 16.5 0 3.8 2.8 7.8 4.8 9 2.6 1.7 5.7 2.5 6.3 6l0.4-0.3c2.8-4.1 5.4-9.6 3.5-15.6l-2.1-5.2z"/>
  <linearGradient id="SVGID_3_" x1="23.21" x2="25.43" y1="35.05" y2="19.43" gradientUnits="userSpaceOnUse">
    <stop stop-color="#ED8A1A" offset="0"/>
    <stop stop-color="#F1A42B" offset="1"/>
  </linearGradient>
  <path class="cls-3" d="m23.7 31.7-1.7 2.6-3.9 3c6.7-3 10.5-9.6 10.1-19.1l-0.2-0.6c1.4 3.3 1.6 11.2 0.5 18.5l-0.8 3.6-4-8z"/>
</svg>