<svg xmlns="http://www.w3.org/2000/svg" viewBox="0 0 172.1 65">
<!-- SVG created with Arrow, by QuiverAI (https://quiver.ai) -->
  <style type="text/css">.cls-0 {fill:#FFFFFF;}</style>
  <path class="cls-0" d="m17.6 25.9 2.3-18.2 13.5 2.9-10.3 26.7-1.1 27.1h-11v-26.2l-11-38.2 12.3 4.5 3.5 21.1 1.8 0.3z"/>
  <path class="cls-0" d="m35.1 11.5 13 2.1 0.1 50.8h-13.1v-52.9z"/>
  <path class="cls-0" d="m83.9 33.7-11-0.2-0.2-5.7c-0.3-2.5-1.5-4.5-3.8-4.2-1.9 0.2-4.3 1.7-4.4 6.3-0.2 5.3 0.9 18.7 1.3 21.3 0.5 2.6 1.8 4.6 3.4 4.6 1.9 0 3.5-1.5 3.7-4.3l0.2-7 10.8 0.6c0.2 9.1-1.1 19.3-14.8 19.3-9.9 0-14.8-4.3-15.7-13.1-0.5-5.2-0.7-17.3-0.2-24.4s3.5-11.5 12.6-11.7c7.1-0.2 17.1 1.4 18.1 10.9v7.6z"/>
  <path class="cls-0" d="m104.6 15c10.2-0.2 14.3 1.8 14.8 11.8 0.3 5.4 0.5 19.5-0.5 26.4-0.8 5.7-4.8 11.2-15.1 11.2-8.2 0-15.3-2.3-16.1-11.1-0.6-6.5-0.6-18.6-0.2-24.9 0.4-8.3 7-13.2 17.1-13.4zm2.9 13.1c-0.1-2.7-1.8-6.1-3.8-5.9s-4.6 2.9-4.6 5.9l0.3 22.3c0.1 3.1 1.4 5.3 3.7 5.4 2.1 0.1 4.4-2.3 4.4-5.3v-22.4z"/>
  <path class="cls-0" d="m124.1 12.8 19.6-3.9 2.2 26.7 2-0.3 2.9-29.1 17.3-6.2v64.4h-10.3l0.6-46.2-2.7-0.4-5.6 46.6h-7.8l-4.6-38.3h-2.1l0.5 38.3h-12v-51.6z"/>
</svg>