<svg xmlns="http://www.w3.org/2000/svg" viewBox="0 0 180 60">
<!-- SVG created with Arrow, by QuiverAI (https://quiver.ai) -->
  <style type="text/css">.cls-0 {fill:#51585E;}
.cls-1 {fill:#F5A23C;}
.cls-2 {fill:#535B62;}
.cls-3 {fill:#898D93;}</style>
  <path class="cls-0" d="m27.3 8.7h-14.2c-0.5 2.6 2.5 7.9 8.9 7.9 6.2 0 21.4-1.7 21.4 13.7 0 7.8-3.5 13.4-13.2 13.4h-8.3c-4.4 0-9.1 3.6-9.1 7.8h16.7c15 0 23.4-7.3 23.5-17.7v-6.7c-1.4-7.8-6.7-18.4-25.7-18.4z"/>
  <path class="cls-2" d="m37.3 28.7-2.8-0.2c-0.3-0.9-0.7-1.8-1.2-2.6l1.6-2.1-2-2.2-2.6 1.5c-1-0.6-2.1-1.1-3.3-1.3l-0.6-2.4h-3l-0.7 2.4c-1.1 0.2-2.2 0.7-3.2 1.2l-2.5-1.4-2.8 1.8 1.7 2.4c-0.5 0.8-0.9 1.7-1.1 2.7l-3.1 0.3 0.1 3 3.1 0.4c0.3 1 0.7 1.9 1.2 2.8l-1.6 2 2.2 1.9 2.5-1.4c1 0.6 2.1 1 3.2 1.2l0.6 2.5h3.3l0.6-2.6c1.1-0.2 2.2-0.6 3.1-1.2l2.3 1.5 2.5-1.9-1.4-2c0.6-0.8 1-1.8 1.3-2.8l2.6-0.2v-3.3zm-12.7 7.6c-3.5 0-7-2.1-7-5.8 0-3.6 3-6.1 6.8-6.1 3.7 0 7.3 2.1 7.3 5.9 0 3.6-3.8 6-7.1 6z"/>
  <path class="cls-1" d="m84.1 8.3c-11-0.5-21.2 9.4-21.4 25.2v17.8h10.7v-7.3h3.4l-0.6 1.8 2.3 1.4 1.4-1.6 1.8 0.5v2.1l2.8 0.2 0.3-2.3 1.9-0.7 1.4 1.6 2.3-1.2-0.8-1.9 3.2-0.1v7.5h10.4v-20.4c-1.5-13.4-9.2-22.2-19.1-22.6zm3.3 31c1-1.2 1.7-2.8 1.7-5.3 0-3.4-2.5-7.5-6.1-7.5-3.2 0-6.1 3.1-6.1 7.2 0 2.2 0.8 4.1 2 5.6h-5.4l0.4-2.8-2.7-1.7v-2l2.1-0.7 0.7-2.6-1.4-1.6 0.7-2 1.9 0.6 1.7-2.1-0.6-2 1.7-1.3 1.9 1.5 2.3-1 0.4-2.1h1.2l0.7 2.1 2.1 1.1 2-1.6 1 0.8-0.5 2.5 1.9 2.1 1.6-0.7 1 1.4-1.4 2.3 0.8 2.6 1.7 0.6v2.1l-1.8 0.9-0.3 3.6h-5.2zm-3.3-4v2.7h-1.9l-0.2-2.7c-0.5-0.3-0.9-0.9-0.9-1.4 0-0.8 0.8-1.7 1.7-1.7s1.9 0.8 1.9 1.7c0 0.5-0.2 1-0.6 1.4z"/>
  <path class="cls-2" d="m148.1 37.9-7.7-0.9c-1.3 2.5-3.4 3.9-7.1 3.9-5.7 0-11.7-5-11.7-11.5 0-6 4.9-10.3 9.9-10.3 2.9 0 5.6 1 7.9 3.5l7.7-0.1-0.4-1.9 1.1-1v-4.5l-3.3-2.7-3.9 2.7c-1-0.7-2.2-1.3-3.8-1.7l-1-4.6-6.9 0.1-0.5 3.5c-1.8 0.3-4.1 0.8-5.6 2l-2.9-1.5-4.5 4.6 1.4 2.6-1.8 6.5-3.2 0.2v7.3l4.2 0.5 1.9 4.3-2.2 4.3 4.6 4.6 3.9-2.4 4.5 1.5 0.8 4.5h6.8l0.6-3.9c2-0.4 3.6-1.1 5.1-2.2l2.6 2 4.7-3.9-1.2-5.5z"/>
  <path class="cls-3" d="m148.9 18.2-0.7-2.1 7.1-0.6-0.5-0.8h-7.8l0.9 4.9 2.3 0.1c4.7-0.3 14.6 0.3 14.6-0.9 0-0.8-11.7-0.4-15.9-0.6z"/>
  <path class="cls-3" d="m147.2 22.3-0.3-1.4-1.1 2.6h23.3v-1.3c-6.6-0.1-15.8 0.3-21.9 0.1z"/>
  <path class="cls-3" d="m135.4 22.5v1h4.3v-1.2z"/>
  <path class="cls-2" d="m148.2 37.9-12.8-0.8v0.8h4.2l-0.5 0.6 23.5-0.6-1.1-1.3z"/>
  <path class="cls-2" d="m148.1 40.3 0.3 1.4 8.8-0.3-0.9-0.8z"/>
</svg>