<svg xmlns="http://www.w3.org/2000/svg" viewBox="0 0 150 120.4">
<!-- SVG created with Arrow, by QuiverAI (https://quiver.ai) -->
  <style type="text/css">.cls-0 {fill:#0080C5;}
.cls-1 {fill:#636569;}</style>
  <path class="cls-0" d="m112.8 24.7-1.2-1.7-2.4-1.3-3.1-2-6.1-1-4.6 2.7-2.4 4.3-0.5 0.1c-2.4-5-8.8-10.7-9.4-12.9-0.7-2.3-3.5-9.9-3.5-9.9l-2.1 1-0.2 2.1c-1.7 0.2-1.3 3.1-1.3 4.6s-0.6 2.9-0.4 3.6l0.2 3.6-0.6 0.9 0.7 2.3 0.2 2.8-0.5 2.2 0.6 2.7 1.6 2.5 0.7 0.8 0.6 2.1-0.3 2.8-0.7 1.8 0.1 1.8 1 1.3-0.2 1.5-1.3 0.2-2.5-3.4-1.9-3.7-2.4-1.5-4.6-4c0.5-3.1-2.1-4.3-2.1-4.3l-4-8.6c-0.7-2.1 0.2-5.7 0.2-5.7 1.2 0.2 4.4 3.7 7.7 5.9s6.8 4 6.8 4l-0.2 2.8-0.2 1 0.7 2.8 0.9 1.1 0.9 1.7 0.3 4.9 1 3.1 0.6 0.9-0.1-3 0.5-1.1 0.1-3.4-1.4-2.4-1.6-3.2v-2.3l0.2-1.6-0.4-2.9-0.6-1.7 0.5-1.3-0.3-4.8 0.3-1.9 0.1-4.1 1.1-0.5 0.4-2.7h2l3.6 9.2 6.3 7.7 3.1 5 0.1 0.3 2.1-3.8 4.7-3.4 5 0.7 4 1.6 2.1 1.4 1.6 0.7 1.1 1.6c1.5 0.2 2.2 2.1 1.1 3.6l-2.3 2.5-0.9 1.5-3.4-1 0.9 3.7 0.7 1.5 0.6 6.6 1.6 2.8c0.4 1.4-0.7 7.1-1 7.1l3.9 14.4 3.9 1.3 1.3 1.9v1.4h-8.1l-1.6-4.9-4.5-10-2.2 0.5-1 1.1-10.2 2.4-5.5 0.9 0.9-3.8-1-4-0.9 6.9-6 5.4 6.3 0.7 1.3 1.2 3.3 0.4 1.5 1.3-0.2 1.9h-26.7l-1.8-2.4-11.5 2.5-5-0.1-4-1.3-3.5-1.3-5.4 0.9-4-0.7 0.1-0.8 2.8-1.4 4 0.7c2.3-1.7 6 0.3 9.9 2.1 2.1 1 9-1 11.6-1.8 4.6-1.4 6.1-3.2 7-5.7 1.2-3.3 3.2-6.8 6.5-9.3l4.5-2 4.2-3.3 2.5-1.5-0.1-1.5-2.4-0.7-0.7-6.3 0.7-1 0.3-4.4-2-2.6-0.8-3.4 0.1-8.1-0.3-11.5 0.8-2.7 2.9 8.5 5.5 7.1 5.4 5.9h0.2l2.5-3.8 4.4-3.2 5.3 0.7 5.1 2.8 2.8 2.3z"/>
  <path class="cls-1" d="m36.9 83.6h-0.5c0-2.8-3.5-5.7-8.5-5.7-6.8 0-11 4.8-11 12 0 8.7 5 13.2 11.2 13.2 2 0 6-0.2 6.3-1.2v-6.3c0-1.5-1-1.4-3-1.5v-1h8.5v0.9c-2 0.2-3 0.4-3 2.1v7.5c-2.5 0.6-4.8 1.1-8.3 1.1-7.7 0-15-4.3-15-13.8 0-8.2 6.1-14.3 13.8-14.3 4.7 0 6.7 1 8 1.3l1-1.3h0.5v7z"/>
  <path class="cls-1" d="m50.2 90.4h-3.6v-10.3c0-1.5 0.3-2 1.8-2 3.7 0 6.7 1.6 6.7 6 0 3.8-2.2 6.3-4.9 6.3m9.5 9.2-2.6-4.5c-1-1.5-2.5-3-3.5-3.5 1.5-0.5 4.6-2 4.6-7.2 0-5-4.8-7.3-9.6-7.3l-7.4-0.2v0.7c1.7 0.5 2.9 1.5 2.9 2.8v20.5l-2.9 1.7v0.8h8.4v-0.8l-3-1v-10.2h2c1.6 0.7 3.8 3 4.8 4.5l5.5 7.7h5v-1c-1.2 0-2.7-1-4.2-3"/>
  <path class="cls-1" d="m64.9 77.4 0.2-0.5 8.3 0.2v0.5l-2.8 1.5v22.8l2.8 1-0.3 0.7h-8v-0.7l2.8-1v-22.3z"/>
  <path class="cls-1" d="m75.6 77.1h15.6l0.5 4.3h-0.6c-0.4-2-1.4-2.8-3.2-2.8h-6.8v11.5h7.5l0.8-2.5h0.8v6.5h-0.8l-0.8-2.2h-7.5v10l2.8 1-0.3 0.7h-8l-0.2-0.7c1.7-0.3 3-0.8 3-2v-21l-2.8-2.5z"/>
  <path class="cls-1" d="m93.7 76.9 16 0.2 0.4 4.3h-0.7c-0.3-2-1.3-2.5-3-2.5h-6.8v11.2h7.4l0.9-2.2h0.7v6.2h-0.7l-0.9-2.2h-7.4v9.7l3 1.3-0.2 0.5-8.8 0.2v-0.7c1.5-0.3 3-0.8 3-2v-21.3l-2.9-2.2v-0.5z"/>
  <path class="cls-1" d="m112.4 77.4 0.2-0.5 8 0.2v0.5l-2.5 2v22l2.8 1.3-0.3 0.7h-8.4l-0.1-0.7 3-1 0.3-22z"/>
  <path class="cls-1" d="m143.4 76.9h6.2v0.5c-1.5 0.2-2.5 1.2-2.5 2.7l-0.2 24.6-19.3-22.6 0.3 19.5 2.7 1.5v0.3h-7l-0.2-0.3 2.7-1.5 0.3-20.5c-1.3-2-2.3-3-4-3.5v-0.5h5l18.5 22v-19.7l-2.8-2 0.3-0.5z"/>
  <path class="cls-1" d="m55.4 118.4 1-0.8v-7l-0.8-1h2.8l-0.5 1.3v7h2.2l0.8-1.3h0.2l-0.2 2.3z"/>
  <path class="cls-1" d="m63.6 109.6h3l-0.5 1v7.5l0.5 0.8h-2.7l0.7-0.8v-7.5z"/>
  <path class="cls-1" d="m76.6 118.9 0.5-0.8v-6.5l-2.7 7h-0.5l-3-7-0.3 6.5 1 0.8h-2.2l0.5-0.8 0.5-7.5-1-1h2.5l2.5 6.5 2.2-6.5h2.3l-0.8 1 0.3 7.5 0.5 0.8z"/>
  <path class="cls-1" d="m81.7 109.6h2.9l-0.5 1v7.3l0.5 1h-2.9l0.9-1v-7.3z"/>
  <path class="cls-1" d="m87.7 109.4h8v2.7l-1.1-1.7h-2.2v7.5l0.7 1h-2.9l0.5-1 0.2-7.5h-2l-1.2 1.7z"/>
  <path class="cls-1" d="m97.9 109.6h6l0.2 2.5-0.5-1.5h-3.2v3.5h1.7l0.8-1 0.2 2.8-1-1h-1.7v2.7l0.5 0.3h2.2l1-1.5-0.2 2.5-6.2-0.3 0.9-0.7 0.3-7z"/>
  <path class="cls-1" d="m110.6 118.1-1.7-0.2-0.3-7.5 1.8-0.3c2 0 3.5 1.5 3.5 4.3 0 2.5-1.5 3.7-3.3 3.7m0-8.7-4.2 0.2 1 1.3v7l-1.3 0.7 4.5 0.3c3 0 5-1.5 5-4.8 0-2.7-2.2-4.7-5-4.7"/>
</svg>