<svg xmlns="http://www.w3.org/2000/svg" viewBox="0 0 150 34.5">
<!-- SVG created with Arrow, by QuiverAI (https://quiver.ai) -->
  <style type="text/css">.cls-0 {fill:#FF6200;}
.cls-1 {fill:#FDFDFD;}
.cls-2 {fill:#FF6100;}</style>
  <path class="cls-0" d="m0.2 12.6h4.3v14.6h-4.3v-14.6zm2.2-7.2c-1.3 0-2.4 1.1-2.4 2.2s1 2.3 2.4 2.3 2.5-1.1 2.5-2.3-1.1-2.2-2.5-2.2"/>
  <path class="cls-2" d="m12.1 14.6v-2h-4.3v14.6h4.3v-9c0.5-1 1.4-2.1 2.8-2.1 1.3 0 2.4 0.8 2.4 2.5v8.7h4.4v-10.3c-0.5-5.5-7.8-6.7-9.6-2.4"/>
  <path class="cls-1" d="m35.1 22.4c-0.5 0.7-1.3 1.6-2.5 1.6-2.6 0-3-2-3-4.2s0.6-4.2 3-4.2c1.1 0 2 0.8 2.5 1.4v5.4zm0.1-9.8-0.1 1.4c-0.8-1.1-2.1-1.7-3.8-1.7-4.2 0-6.3 3.1-6.3 7.5 0 4.3 2.1 7.4 6.3 7.4 1.7 0 2.9-0.9 3.8-1.7v0.9c0 2.2-1.3 3.2-3.5 3.2-1.5 0-3.4-0.3-4.9-1l-0.7 3c1.9 1.5 4.2 2.3 6.1 2.3 3.2 0 8.2-1.4 8.2-7.6v-13.7h-5.1z"/>
  <path class="cls-1" d="m48.3 18.2c0.2-1.3 0.8-2.9 2.6-2.9 2.1 0 2.6 1.5 2.6 2.9h-5.2zm2.6-6.5c-4.7 0-7.6 3.2-7.6 8s3 7.9 8.1 7.9c1.9 0 3.5-0.3 5.1-1v-3.1c-1.4 0.4-2.8 0.8-4.4 0.8-1.9 0-3.5-0.7-3.9-2.5h9.8c0.9-5-1-10.1-7.1-10.1"/>
  <path class="cls-1" d="m65.5 13.6-0.1-1.5h-4.9v15.1h4.8v-10.4c0.7-0.9 1.5-1.3 2.6-1.3s1.9 0.8 1.9 2.1v9.6h4.8v-10.1c0-0.8-0.1-1.4-0.2-2 0.7 0.3 1.7 0.4 2.5 0.4 1.6 0 2.6-0.8 2.6-3.3-0.7-0.2-1.4-0.3-2-0.3-2.3 0-3.6 0.8-4.3 2.2-0.8-1.3-2.2-2.2-4.3-2.2-1.4 0-2.6 0.7-3.4 1.7"/>
  <path class="cls-1" d="m86.8 22.5c-0.4 0.5-1.1 1-1.9 1-1.2 0-1.8-0.9-1.8-1.9v-9.7h-4.8v10.1c0 3.4 1.8 5.6 4.7 5.6 1.6 0 2.9-0.6 3.9-1.7l0.1 1.3h5.6v-15.3h-5.8v10.6z"/>
  <path class="cls-1" d="m95.9 27.2h5.2v-15.3h-5.2v15.3z"/>
  <path class="cls-1" d="m98.6 5c-1.6 0-3.1 1.1-3.1 2.7s1.4 2.7 3.1 2.7c1.6 0 3.2-1.1 3.2-2.7s-1.6-2.7-3.2-2.7"/>
  <path class="cls-1" d="m112.1 8.1-6.1 0.7-0.1 3.2h-1.5v3.5h1.5v7.5c0 3.4 2.6 4.6 5.1 4.6 1.2 0 2.4-0.2 3.5-0.6v-3c-0.5 0.1-1.1 0.3-1.6 0.3-1 0-1.8-0.4-1.8-1.5v-7.3h3.1l0.3-3.5h-2.4v-3.9z"/>
  <path class="cls-2" d="m111.7 7.5 13-7.5 6.5 3.7-12.8 7.5-6.7-3.7z"/>
  <path class="cls-2" d="m131.4 18.9 12.5-7.7 5.9 3.8-11.3 8-7.1-4.1z"/>
  <path class="cls-2" d="m131.4 3.7 6.2-3.6 11.9 7.3-5.7 3.7-12.4-7.4z"/>
  <path class="cls-2" d="m130.3 3.7"/>
  <path class="cls-2" d="m143.7 11.1"/>
  <path class="cls-0" d="m130.3 3.7"/>
  <path class="cls-0" d="m143.7 11.1"/>
</svg>